<svg xmlns="http://www.w3.org/2000/svg" xmlns:xlink="http://www.w3.org/1999/xlink" width="665.596" height="437.688" viewBox="0 0 665.596 437.688"><defs><linearGradient id="a" x1="0.5" y1="0.126" x2="0.5" y2="0.947" gradientUnits="objectBoundingBox"><stop offset="0" stop-color="#2e48cd"/><stop offset="1" stop-color="#1f237e"/></linearGradient><linearGradient id="b" x1="0.064" y1="0.87" x2="1.226" y2="-0.078" gradientUnits="objectBoundingBox"><stop offset="0" stop-color="#2e3e9d"/><stop offset="1" stop-color="#79d3fd"/></linearGradient><linearGradient id="c" x1="-16.893" y1="4.385" x2="-15.252" y2="3.65" xlink:href="#b"/><linearGradient id="d" x1="0.5" y1="1.424" x2="0.5" y2="-0.327" gradientUnits="objectBoundingBox"><stop offset="0" stop-color="#002aa2"/><stop offset="1" stop-color="#79d3fd"/></linearGradient><linearGradient id="e" x1="0.021" y1="-0.117" x2="0.946" y2="1.074" gradientUnits="objectBoundingBox"><stop offset="0" stop-color="#f9dd68"/><stop offset="1" stop-color="#f9a942"/></linearGradient><linearGradient id="f" x1="-0.076" y1="0.785" x2="1.006" y2="-0.168" gradientUnits="objectBoundingBox"><stop offset="0" stop-color="#10274a"/><stop offset="1" stop-color="#00347f"/></linearGradient><linearGradient id="g" x1="0.212" y1="-6.041" x2="0.768" y2="6.585" xlink:href="#f"/><linearGradient id="h" x1="0.194" y1="-3.971" x2="0.766" y2="4.659" gradientUnits="objectBoundingBox"><stop offset="0" stop-color="#fff"/><stop offset="1" stop-color="#79d3fd"/></linearGradient><linearGradient id="i" x1="0.1" y1="0.1" x2="0.872" y2="0.872" xlink:href="#f"/><linearGradient id="j" x1="0.1" y1="0.1" x2="0.872" y2="0.872" xlink:href="#h"/><linearGradient id="k" x1="0.12" y1="0.12" x2="0.845" y2="0.845" xlink:href="#e"/><linearGradient id="l" x1="-0.376" y1="0.006" x2="1.269" y2="0.963" xlink:href="#e"/><linearGradient id="m" x1="-37.213" y1="0.5" x2="-38.202" y2="0.5" gradientUnits="objectBoundingBox"><stop offset="0" stop-color="#00006c"/><stop offset="1" stop-color="#5793fb"/></linearGradient><linearGradient id="n" x1="-40.626" y1="1" x2="-40.626" y2="0.038" gradientUnits="objectBoundingBox"><stop offset="0" stop-color="#5793fb"/><stop offset="0.995" stop-color="#00009a"/></linearGradient><linearGradient id="o" x1="-11.022" y1="1" x2="-11.022" y2="0.038" xlink:href="#m"/><linearGradient id="p" x1="-11.321" y1="1" x2="-11.321" y2="0.038" gradientUnits="objectBoundingBox"><stop offset="0" stop-color="#a6e5d4"/><stop offset="1" stop-color="#79d3fd"/></linearGradient><linearGradient id="q" y1="0.5" x2="1" y2="0.5" gradientUnits="objectBoundingBox"><stop offset="0" stop-color="#2c89fb"/><stop offset="1" stop-color="#0059ff"/></linearGradient><linearGradient id="r" x1="0" y1="0.5" x2="1" y2="0.5" xlink:href="#p"/><linearGradient id="w" x1="-123.474" y1="0.5" x2="-122.474" y2="0.5" gradientUnits="objectBoundingBox"><stop offset="0" stop-color="#fff"/><stop offset="1" stop-color="#e2f5ff"/></linearGradient><linearGradient id="x" x1="-123.475" y1="0.5" x2="-122.475" y2="0.5" xlink:href="#w"/><linearGradient id="y" x1="-123.474" y1="0.5" x2="-122.474" y2="0.5" xlink:href="#w"/><linearGradient id="z" x1="-247.641" y1="0.5" x2="-246.641" y2="0.5" xlink:href="#w"/><linearGradient id="aa" x1="-112.331" y1="0.5" x2="-111.331" y2="0.5" xlink:href="#w"/><linearGradient id="ab" x1="-112.332" y1="0.5" x2="-111.332" y2="0.5" xlink:href="#w"/><linearGradient id="ac" x1="-112.332" y1="0.5" x2="-111.332" y2="0.5" xlink:href="#w"/><linearGradient id="ad" x1="-225.384" y1="0.5" x2="-224.384" y2="0.5" xlink:href="#w"/><linearGradient id="ae" x1="-111.87" y1="0.5" x2="-110.87" y2="0.5" xlink:href="#w"/><linearGradient id="af" x1="-111.87" y1="0.5" x2="-110.87" y2="0.5" xlink:href="#w"/><linearGradient id="ag" x1="-224.466" y1="0.5" x2="-223.466" y2="0.5" xlink:href="#w"/><linearGradient id="ah" x1="0.5" y1="1" x2="0.5" y2="0.021" gradientUnits="objectBoundingBox"><stop offset="0" stop-color="#8affff"/><stop offset="1" stop-color="#79d3fd" stop-opacity="0"/></linearGradient><linearGradient id="aj" x1="0.5" y1="1.192" x2="0.5" y2="0.105" gradientUnits="objectBoundingBox"><stop offset="0" stop-color="#8affff"/><stop offset="1" stop-color="#423bfd"/></linearGradient><linearGradient id="ak" x1="0.5" y1="0.998" x2="0.5" y2="0.151" gradientUnits="objectBoundingBox"><stop offset="0" stop-color="#8affff"/><stop offset="1" stop-color="#79d3fd"/></linearGradient><linearGradient id="al" x1="0" y1="0.5" x2="1" y2="0.5" xlink:href="#ak"/><linearGradient id="am" x1="-0.014" y1="0.5" x2="1.278" y2="0.5" xlink:href="#b"/><linearGradient id="an" x1="0.666" y1="0.349" x2="0.361" y2="0.925" xlink:href="#e"/><linearGradient id="ao" x1="0" y1="0.5" x2="1" y2="0.5" xlink:href="#e"/><linearGradient id="aq" x1="0.274" y1="0.372" x2="2.276" y2="1.509" xlink:href="#e"/><linearGradient id="ar" x1="-0.639" y1="-0.059" x2="1.702" y2="1.116" xlink:href="#e"/><linearGradient id="as" x1="-1.5" y1="-0.469" x2="0.948" y2="0.689" xlink:href="#e"/><linearGradient id="av" x1="0" y1="0.5" x2="1" y2="0.5" xlink:href="#e"/><linearGradient id="aw" x1="0" y1="0.5" x2="1" y2="0.5" xlink:href="#e"/><linearGradient id="ax" x1="0" y1="0.5" x2="1" y2="0.5" xlink:href="#e"/><linearGradient id="ba" x1="0" y1="0.5" x2="1" y2="0.5" xlink:href="#e"/><linearGradient id="bb" y1="0.5" x2="1" y2="0.5" gradientUnits="objectBoundingBox"><stop offset="0" stop-color="aqua"/><stop offset="1" stop-color="#5793fb"/></linearGradient><linearGradient id="bd" x1="0.5" y1="0.048" x2="0.5" y2="0.822" gradientUnits="objectBoundingBox"><stop offset="0" stop-color="#00004f"/><stop offset="1" stop-color="#000079"/></linearGradient><linearGradient id="be" x1="0.5" y1="0.034" x2="0.5" y2="0.804" gradientUnits="objectBoundingBox"><stop offset="0" stop-color="#00006c"/><stop offset="1" stop-color="#3049b9"/></linearGradient><linearGradient id="bf" x1="0.5" y1="0.034" x2="0.5" y2="0.804" xlink:href="#bd"/><linearGradient id="bg" x1="0.5" y1="-0.142" x2="0.5" y2="0.931" gradientUnits="objectBoundingBox"><stop offset="0" stop-color="#00b5ff"/><stop offset="1" stop-color="#3049b9"/></linearGradient><linearGradient id="bh" x1="0.5" y1="0.996" x2="0.5" y2="0.119" gradientUnits="objectBoundingBox"><stop offset="0" stop-color="#7995fd"/><stop offset="1" stop-color="#54deff"/></linearGradient><linearGradient id="bi" x1="0.783" y1="1.065" x2="0.266" y2="0.209" xlink:href="#bh"/><linearGradient id="bj" x1="0.073" y1="-0.037" x2="1.033" y2="0.996" xlink:href="#q"/><linearGradient id="bk" x1="0.428" y1="0.155" x2="0.664" y2="1.054" xlink:href="#m"/><linearGradient id="bl" x1="0.417" y1="0.073" x2="0.604" y2="0.997" xlink:href="#m"/><linearGradient id="bm" x1="1.07" y1="0.239" x2="0.029" y2="0.865" xlink:href="#be"/><linearGradient id="bn" x1="-0.273" y1="0.673" x2="0.478" y2="0.356" xlink:href="#bb"/><linearGradient id="bo" x1="0.046" y1="0.237" x2="0.938" y2="1.028" xlink:href="#bb"/><linearGradient id="bp" x1="0.672" y1="-0.047" x2="0.317" y2="0.946" gradientUnits="objectBoundingBox"><stop offset="0" stop-color="#000051"/><stop offset="1" stop-color="#30389c"/></linearGradient><linearGradient id="bq" x1="0.545" y1="0.133" x2="0.379" y2="0.983" xlink:href="#bp"/><linearGradient id="br" x1="0.5" y1="1.042" x2="0.5" y2="0.248" xlink:href="#bh"/><linearGradient id="bs" x1="0.5" y1="0.994" x2="0.5" y2="0.152" xlink:href="#bh"/><linearGradient id="bt" x1="0.825" y1="0.96" x2="0.122" y2="-0.035" gradientUnits="objectBoundingBox"><stop offset="0" stop-color="#160ec0"/><stop offset="1" stop-color="#5451ff"/></linearGradient><linearGradient id="bu" x1="0.5" y1="0.798" x2="0.5" y2="0.272" xlink:href="#bh"/><linearGradient id="ca" x1="-0.062" y1="-0.062" x2="1.217" y2="1.217" xlink:href="#e"/><linearGradient id="cd" x1="0.146" y1="0.147" x2="0.854" y2="0.854" xlink:href="#e"/><linearGradient id="ce" x1="0.146" y1="0.147" x2="0.853" y2="0.854" xlink:href="#e"/><linearGradient id="cf" x1="0.147" y1="0.147" x2="0.854" y2="0.854" xlink:href="#e"/><linearGradient id="cg" x1="0.088" y1="-0.099" x2="0.912" y2="1.099" xlink:href="#e"/><linearGradient id="ch" x1="0.021" y1="-0.117" x2="0.946" y2="1.074" xlink:href="#q"/><linearGradient id="cj" x1="0.212" y1="-6.042" x2="0.768" y2="6.585" xlink:href="#f"/><linearGradient id="ck" x1="0.194" y1="-3.971" x2="0.766" y2="4.659" xlink:href="#h"/><linearGradient id="cm" x1="0.1" y1="0.1" x2="0.872" y2="0.872" xlink:href="#h"/><linearGradient id="cn" x1="0.156" y1="0.16" x2="0.927" y2="0.868" xlink:href="#f"/><linearGradient id="co" x1="0.08" y1="-0.05" x2="0.92" y2="1.05" xlink:href="#q"/><linearGradient id="cp" x1="0.239" y1="0.056" x2="0.736" y2="1.293" xlink:href="#a"/><linearGradient id="cq" x1="-75.827" y1="0.056" x2="-75.33" y2="1.293" xlink:href="#a"/><linearGradient id="cr" x1="0" y1="0.5" x2="1" y2="0.5" xlink:href="#a"/><linearGradient id="cs" x1="0" y1="0.5" x2="1" y2="0.5" xlink:href="#a"/><linearGradient id="ct" x1="0" y1="0.5" x2="1" y2="0.5" xlink:href="#bh"/><linearGradient id="cu" x1="1.742" y1="1.742" x2="-0.303" y2="-0.303" xlink:href="#bh"/><linearGradient id="cv" x1="0.966" y1="0.965" x2="-1.079" y2="-1.079" xlink:href="#bh"/><linearGradient id="cw" x1="0.965" y1="0.966" x2="-1.079" y2="-1.079" xlink:href="#bh"/><linearGradient id="cx" x1="1.742" y1="1.742" x2="-0.302" y2="-0.303" xlink:href="#bh"/></defs><g transform="translate(-355.771 -211.667)"><path d="M385.64,628.674c-10.472-44.6,1.261-75.153,35.032-98.1,24.58-16.7,75.306-30.458,92.871-54.43,7.561-10.32,11.742-22.65,17.04-34.3,22.783-50.074,73.072-90.424,128.046-88.356,37.086,1.395,71.252,21.228,99.052,45.815,20,17.689,38.489,38.638,63.549,47.854,25.146,9.246,77.721,16.42,98.592,33.223,66.112,53.225,45.285,123.11,36.035,148.115" transform="translate(3.724 20.176)" opacity="0.67" fill="url(#a)" style="mix-blend-mode:screen;isolation:isolate"/><g transform="translate(517.177 568.258)"><path d="M719.3,581.617s24.02-35.215,36.157-17.33c11.425,16.835-31.021,25.569-31.021,25.569" transform="translate(-465.434 -518.789)" fill="url(#b)"/><path d="M589.935,563.364s-31.146-29.1-11.621-38.376c18.379-8.727,20.545,34.555,20.545,34.555" transform="translate(-486.417 -523.826)" fill="url(#c)"/><path d="M816.591,601.748H497.066c.2-.734,1.379-1.968,4.554-4,6.8-4.383,28.267-.445,28.267-.445s-5-2-4.974-4.593,1.982-4.856,4.331-5.932a16.32,16.32,0,0,1,7.625-1,48.588,48.588,0,0,1,15.34,3.438,4.452,4.452,0,1,1,5.158-7.231c-3.307-4.462-11.041-26.955,4.629-35.682,19.645-10.932,37.208.761,40.384,7.336,1.614-6.457,9.021-11.383,13.911-12.559,23.3-5.6,40.314,14.409,40.537,14.75.224-.34.459-.682.709-1.024,2.44-3.241,7.362-9.094,11.05-10.813,10.393-4.856,17.638-5.682,28.779-2.913,4.882,1.207,12.3,6.1,13.91,12.559,3.177-6.575,21.01-21.34,40.119-9.5,17.366,10.765,8.2,33.379,4.895,37.841a4.451,4.451,0,1,1,5.156,7.231,48.6,48.6,0,0,1,15.342-3.438,16.314,16.314,0,0,1,7.624,1c2.35,1.076,4.305,3.347,4.332,5.932s-4.974,4.593-4.974,4.593,21.469-3.938,28.267.445C815.214,599.779,816.395,601.013,816.591,601.748Z" transform="translate(-497.066 -521.595)" fill="url(#d)"/></g><g transform="translate(825.123 288.659)"><rect width="69.158" height="53.685" rx="4.33" fill="url(#e)"/><path d="M789.657,292.872l17.351,10.018a1.244,1.244,0,0,1,0,2.154l-17.351,10.017a1.244,1.244,0,0,1-1.867-1.077V293.95A1.245,1.245,0,0,1,789.657,292.872Z" transform="translate(-763.631 -277.125)" fill="url(#f)"/><path d="M834.276,333.2H768.165a1.522,1.522,0,0,1-1.523-1.523h0a1.524,1.524,0,0,1,1.523-1.524h66.112a1.524,1.524,0,0,1,1.523,1.524h0A1.522,1.522,0,0,1,834.276,333.2Z" transform="translate(-766.641 -271.794)" fill="url(#g)"/><path d="M832.916,331.677a1.523,1.523,0,0,1-1.524,1.523H786.936v-3.047h44.456A1.524,1.524,0,0,1,832.916,331.677Z" transform="translate(-763.753 -271.794)" fill="url(#h)"/><path d="M791.514,331.995a4.075,4.075,0,1,1-4.075-4.075A4.075,4.075,0,0,1,791.514,331.995Z" transform="translate(-764.261 -272.112)" fill="url(#i)"/><path d="M789.532,331.775a2.312,2.312,0,1,1-2.312-2.311A2.312,2.312,0,0,1,789.532,331.775Z" transform="translate(-764.041 -271.892)" fill="url(#j)"/></g><g transform="translate(506.967 352.19)"><path d="M510.64,379.7a22.511,22.511,0,1,1,22.511-22.512A22.538,22.538,0,0,1,510.64,379.7Zm0-42.051a19.539,19.539,0,1,0,19.539,19.539A19.563,19.563,0,0,0,510.64,337.653Z" transform="translate(-488.128 -334.681)" fill="url(#k)"/><g transform="translate(12.602 5.482)"><path d="M518.985,361.826a5.582,5.582,0,0,0-1.1-3.6,7.2,7.2,0,0,0-2.794-2.09,25.9,25.9,0,0,0-3.909-1.221v-7.264a13.938,13.938,0,0,1,3.324.845,1.961,1.961,0,0,0,2.557-1.069,2.018,2.018,0,0,0-.01-1.556,1.813,1.813,0,0,0-.99-.981,17.851,17.851,0,0,0-4.88-1.087v-2.213a2.113,2.113,0,0,0-4.227,0v2.3a9.928,9.928,0,0,0-5.736,2.464,6.543,6.543,0,0,0-2.061,4.874,5.633,5.633,0,0,0,1.09,3.627,7.3,7.3,0,0,0,2.824,2.11,26.1,26.1,0,0,0,3.883,1.258V365.4a15.638,15.638,0,0,1-3.7-.877c-.426-.158-.842-.327-1.229-.515a1.774,1.774,0,0,0-.742-.168,1.817,1.817,0,0,0-.644.119,2.029,2.029,0,0,0-1.139,1.06,1.988,1.988,0,0,0,.971,2.606,16.858,16.858,0,0,0,1.793.693,19.541,19.541,0,0,0,4.7.9v2.21a2.113,2.113,0,1,0,4.227,0v-2.335a10.08,10.08,0,0,0,5.752-2.471A6.416,6.416,0,0,0,518.985,361.826Zm-14.05-9.006a2.368,2.368,0,0,1-.872-1.883,2.855,2.855,0,0,1,.793-2,4.266,4.266,0,0,1,2.1-1.131v6.037A5.929,5.929,0,0,1,504.936,352.82Zm8.333,11.374a4.319,4.319,0,0,1-2.086,1.044V359.3a6.322,6.322,0,0,1,2.036,1.087,2.375,2.375,0,0,1,.852,1.873A2.65,2.65,0,0,1,513.269,364.194Z" transform="translate(-499.16 -339.48)" fill="url(#l)"/></g></g><g transform="translate(843.057 427.885)"><rect width="39.809" height="159.116" transform="translate(81.757 220.966) rotate(180)" fill="url(#m)"/><rect width="36.762" height="159.116" transform="translate(76.476 220.966) rotate(180)" fill="url(#n)"/><path d="M782.9,501.907l5.641-.671,15.069-95a1.864,1.864,0,0,1,1.84-1.572h104.21l1.024-3.256,4.136,2.622c.042.029.089.051.129.083l.014.009h0a1.854,1.854,0,0,1,.684,1.749l-15.507,97.767a1.863,1.863,0,0,1-1.84,1.571H788.541a1.839,1.839,0,0,1-1.242-.487l0,.01Z" transform="translate(-782.261 -400.878)" fill="url(#o)"/><path d="M784.2,502.437H893.955a1.864,1.864,0,0,0,1.84-1.571L911.3,403.1a1.863,1.863,0,0,0-1.84-2.156H799.711a1.863,1.863,0,0,0-1.84,1.572l-15.507,97.767A1.863,1.863,0,0,0,784.2,502.437Z" transform="translate(-782.34 -400.944)" fill="url(#p)"/><path d="M788.614,497.216H889.355a1.184,1.184,0,0,0,1.169-1l14.25-89.841a1.183,1.183,0,0,0-1.169-1.368H802.863a1.184,1.184,0,0,0-1.169,1l-14.251,89.841A1.184,1.184,0,0,0,788.614,497.216Z" transform="translate(-781.616 -400.366)" fill="url(#q)"/><path d="M819.192,452.727h33.488a1.5,1.5,0,0,0,1.479-1.263l4.7-29.655a1.5,1.5,0,0,0-1.478-1.732H823.9a1.5,1.5,0,0,0-1.479,1.263l-4.7,29.654A1.5,1.5,0,0,0,819.192,452.727Z" transform="translate(-777.308 -398.221)" fill="url(#r)"/><g transform="translate(45.414 24.761)"><path d="M824.932,447.458h-2.313a.509.509,0,0,1-.515-.612l2.768-17.419a.744.744,0,0,1,.709-.612h2.313a.509.509,0,0,1,.515.612l-2.768,17.419A.745.745,0,0,1,824.932,447.458Z" transform="translate(-822.096 -421.738)" fill="#edf7ff"/><path d="M830.157,447.008h-2.312a.51.51,0,0,1-.515-.612l2.193-13.809a.748.748,0,0,1,.711-.613h2.312a.51.51,0,0,1,.515.613L830.867,446.4A.745.745,0,0,1,830.157,447.008Z" transform="translate(-821.352 -421.289)" fill="#edf7ff"/><path d="M835.383,447.33H833.07a.509.509,0,0,1-.515-.612l2.6-16.388a.747.747,0,0,1,.711-.612h2.312a.509.509,0,0,1,.515.612l-2.6,16.388A.745.745,0,0,1,835.383,447.33Z" transform="translate(-820.609 -421.61)" fill="#edf7ff"/><path d="M840.608,448.34H838.3a.509.509,0,0,1-.515-.612l3.891-24.494a.746.746,0,0,1,.711-.613h2.312a.51.51,0,0,1,.515.613l-3.892,24.494A.745.745,0,0,1,840.608,448.34Z" transform="translate(-819.865 -422.62)" fill="#edf7ff"/><path d="M845.833,447.706h-2.312a.509.509,0,0,1-.515-.612l3.083-19.409a.747.747,0,0,1,.711-.612h2.312a.51.51,0,0,1,.515.612l-3.083,19.409A.747.747,0,0,1,845.833,447.706Z" transform="translate(-819.121 -421.986)" fill="#edf7ff"/></g><path d="M856.3,469.207h18.383a.821.821,0,0,0,.812-.693l2.582-16.278a.821.821,0,0,0-.811-.95H858.886a.822.822,0,0,0-.812.693l-2.582,16.278A.821.821,0,0,0,856.3,469.207Z" transform="translate(-771.93 -393.779)" opacity="0.5" fill="url(#r)"/><path d="M823.461,480.879h40.805a1.117,1.117,0,0,0,1.1-.944l3.513-22.148a1.118,1.118,0,0,0-1.1-1.294H826.974a1.119,1.119,0,0,0-1.1.944l-3.513,22.148A1.118,1.118,0,0,0,823.461,480.879Z" transform="translate(-776.647 -393.037)" opacity="0.3" fill="url(#r)"/><path d="M827.707,465.218l-1.484,9.357h35.893L863.951,463a5.757,5.757,0,0,0-5.259.466c-2.367,1.3-5.8,5.05-8.167,4.782s-3.834-6.318-7.059-6.276-5.848,6.674-8.428,6.743S829.391,465.144,827.707,465.218Z" transform="translate(-776.094 -392.257)" fill="url(#r)"/><path d="M860.793,428.613h19.832a.545.545,0,0,0,.537-.459l1.707-10.763a.544.544,0,0,0-.537-.629H862.5a.543.543,0,0,0-.537.458l-1.708,10.764A.544.544,0,0,0,860.793,428.613Z" transform="translate(-771.251 -398.693)" opacity="0.5" fill="url(#r)"/><g transform="translate(91.903 33.422)"><path d="M863.853,431.321h10.525a.681.681,0,0,0,.649-.56h0a.466.466,0,0,0-.472-.56H864.03a.68.68,0,0,0-.648.56h0A.465.465,0,0,0,863.853,431.321Z" transform="translate(-862.709 -430.202)" fill="url(#w)"/><path d="M863.562,433.159h10.526a.683.683,0,0,0,.649-.56h0a.466.466,0,0,0-.472-.56H863.739a.68.68,0,0,0-.648.56h0A.466.466,0,0,0,863.562,433.159Z" transform="translate(-862.75 -429.94)" fill="url(#x)"/><path d="M863.271,435H873.8a.681.681,0,0,0,.648-.56h0a.465.465,0,0,0-.471-.56H863.448a.681.681,0,0,0-.649.56h0A.467.467,0,0,0,863.271,435Z" transform="translate(-862.792 -429.679)" fill="url(#y)"/><path d="M868.077,436.835h4.7a.681.681,0,0,0,.648-.56h0a.466.466,0,0,0-.471-.56h-4.7a.681.681,0,0,0-.649.56h0A.466.466,0,0,0,868.077,436.835Z" transform="translate(-862.108 -429.417)" fill="url(#z)"/></g><g transform="translate(21.251 69.455)"><path d="M802,462.864h10.524a.681.681,0,0,0,.649-.56h0a.466.466,0,0,0-.471-.56H802.182a.681.681,0,0,0-.649.56h0A.466.466,0,0,0,802,462.864Z" transform="translate(-800.861 -461.745)" fill="url(#aa)"/><path d="M801.714,464.7h10.524a.682.682,0,0,0,.649-.56h0a.466.466,0,0,0-.471-.56H801.891a.681.681,0,0,0-.649.56h0A.466.466,0,0,0,801.714,464.7Z" transform="translate(-800.902 -461.483)" fill="url(#ab)"/><path d="M801.422,466.541h10.526a.682.682,0,0,0,.649-.561h0a.466.466,0,0,0-.471-.56H801.6a.682.682,0,0,0-.649.56h0A.467.467,0,0,0,801.422,466.541Z" transform="translate(-800.944 -461.222)" fill="url(#ac)"/><path d="M806.228,468.377h4.7a.681.681,0,0,0,.649-.56h0a.466.466,0,0,0-.472-.56h-4.7a.682.682,0,0,0-.649.56h0A.466.466,0,0,0,806.228,468.377Z" transform="translate(-800.26 -460.96)" fill="url(#ad)"/></g><g transform="translate(26.429 21.894)"><path d="M806.247,421.231h10.526a.682.682,0,0,0,.648-.56h0a.466.466,0,0,0-.471-.561H806.424a.682.682,0,0,0-.649.561h0A.466.466,0,0,0,806.247,421.231Z" transform="translate(-805.435 -420.11)" fill="url(#ae)"/><path d="M805.956,423.069h10.526a.682.682,0,0,0,.648-.561h0a.466.466,0,0,0-.471-.56H806.133a.682.682,0,0,0-.649.56h0A.467.467,0,0,0,805.956,423.069Z" transform="translate(-805.477 -419.848)" fill="url(#af)"/><path d="M810.762,424.905h4.7a.681.681,0,0,0,.649-.56h0a.466.466,0,0,0-.471-.56h-4.7a.682.682,0,0,0-.649.56h0A.466.466,0,0,0,810.762,424.905Z" transform="translate(-804.793 -419.587)" fill="url(#ag)"/></g></g><g transform="translate(538.463 328.696)"><path d="M692.978,502.538H610.834L549.071,314.114h205.67Z" transform="translate(-510.949 -314.114)" opacity="0.3" fill="url(#ah)" style="mix-blend-mode:screen;isolation:isolate"/><path d="M709.627,502.538H603.685L515.7,314.114H797.612Z" transform="translate(-515.699 -314.114)" opacity="0.15" fill="url(#ah)" style="mix-blend-mode:screen;isolation:isolate"/><g transform="translate(78.964 188.424)"><rect width="113.301" height="131.73" transform="translate(5.342)" fill="url(#aj)"/><rect width="67.603" height="131.73" transform="translate(28.191)" fill="url(#ak)"/><rect width="123.985" height="16.428" rx="0.712" fill="url(#al)"/><rect width="113.301" height="6.071" transform="translate(5.342 16.428)" fill="url(#am)" style="mix-blend-mode:color-burn;isolation:isolate"/><g transform="translate(47.647 16.428)"><path d="M.533,115.359H-.533V0H.533Z" fill="#707070"/><path d="M.533,115.359H-.533V0H.533Z" transform="translate(14.346)" fill="#707070"/><path d="M.533,115.359H-.533V0H.533Z" transform="translate(28.691)" fill="#707070"/></g></g><path d="M696.739,391.182a43.235,43.235,0,0,0-2.057-6.066,41.715,41.715,0,0,0-2.22-4.464,40.707,40.707,0,0,0-4.979-6.9q-.524-.586-1.07-1.151l-6.8-7.035q.546.565,1.07,1.152a40.58,40.58,0,0,1,2.579,3.2,41.083,41.083,0,0,1,2.4,3.707,41.634,41.634,0,0,1,2.22,4.465,43.147,43.147,0,0,1,2.057,6.066,48.292,48.292,0,0,1,.471,21.447A55.048,55.048,0,0,1,689,411.2a56.552,56.552,0,0,1-2.487,6.584q-1.133,2.517-2.5,4.912-1.229,2.161-2.63,4.21-1.323,1.933-2.788,3.759-1.429,1.78-2.984,3.45t-3.234,3.227q-1.726,1.6-3.564,3.065-1.965,1.566-4.05,2.967-2.322,1.558-4.769,2.9a58.866,58.866,0,0,1-6.161,2.919,53.207,53.207,0,0,1-22.73,3.946,42.638,42.638,0,0,1-28.857-12.7l6.8,7.034a42.641,42.641,0,0,0,28.857,12.7,53.208,53.208,0,0,0,22.73-3.944A59.092,59.092,0,0,0,666.8,453.3q2.445-1.337,4.769-2.9,2.08-1.4,4.05-2.967,1.837-1.463,3.564-3.066,1.674-1.551,3.234-3.226t2.984-3.451q1.463-1.823,2.787-3.758,1.4-2.048,2.631-4.21,1.361-2.392,2.5-4.912a56.489,56.489,0,0,0,2.487-6.586,54.99,54.99,0,0,0,1.409-5.6A48.294,48.294,0,0,0,696.739,391.182Z" transform="translate(-503.38 -306.791)" fill="url(#an)"/><g transform="translate(87.098 46.005)"><path d="M652.235,354.455c27.322,1.432,45.072,25.037,39.641,52.731s-31.98,48.966-59.3,47.535S587.493,429.684,592.922,402,624.9,353.024,652.235,354.455Z" transform="translate(-591.945 -354.387)" fill="url(#ao)"/></g><g transform="translate(92.918 51.797)" style="mix-blend-mode:screen;isolation:isolate"><path d="M650.376,359.518c24.171,1.267,39.872,22.148,35.069,46.647s-28.291,43.319-52.462,42.052S593.1,426.068,597.9,401.577,626.2,358.25,650.376,359.518Z" transform="translate(-597.04 -359.457)" fill="url(#ao)"/></g><g transform="translate(103.626 82.289)"><g style="isolation:isolate"><g transform="translate(0 22.219)"><path d="M612.483,405.918l2.125,2.2-6.069-.318-2.125-2.2Z" transform="translate(-606.414 -405.6)" fill="#fff"/></g><g transform="translate(6.069 10.697)"><path d="M614.048,395.514l2.125,2.2-2.322,11.84-2.125-2.2Z" transform="translate(-611.727 -395.514)" fill="#fff"/></g><g transform="translate(9.458 0.267)"><path d="M614.693,386.384l2.125,2.2,7.357,12.347-2.125-2.2Z" transform="translate(-614.693 -386.384)" fill="#fff"/></g><g transform="translate(15.748 23.044)"><path d="M625.311,406.591l2.125,2.2-5.112-.268-2.125-2.2Z" transform="translate(-620.2 -406.323)" fill="#fff"/></g><g transform="translate(20.86 1.093)"><path d="M629.031,387.107l2.125,2.2L626.8,411.524l-2.125-2.2Z" transform="translate(-624.674 -387.107)" fill="#fff"/></g><path d="M631.63,387.243l-4.357,22.219-5.111-.268L614.8,396.847l-2.322,11.84-6.069-.318,4.357-22.219,5.1.267,7.357,12.347,2.321-11.84Z" transform="translate(-606.414 -386.15)" fill="url(#aq)"/></g><g transform="translate(25.245 1.323)" style="isolation:isolate"><g transform="translate(0 0.901)"><path d="M648.993,388.1l-.952,4.852-11-.577-.96,4.893,2.125,2.2.96-4.893,11,.576.951-4.852Z" transform="translate(-627.436 -388.097)" fill="#fff"/><path d="M645.887,401.42l-9.679-.507-1.494,7.621-6.2-.325,2.125,2.2,6.2.325,1.494-7.621,9.679.507.952-4.852-2.125-2.2Z" transform="translate(-628.513 -386.892)" fill="#fff"/></g><path d="M650.07,388.21l-.952,4.852-11-.576-.96,4.893,9.679.507-.951,4.852-9.679-.507-1.494,7.621-6.2-.325,4.357-22.219Z" transform="translate(-628.513 -387.308)" fill="url(#ar)"/></g><g transform="translate(46.823 2.277)" style="isolation:isolate"><g transform="translate(0 1.029)"><path d="M654.137,392.86l-6.735-.353,2.125,2.2,6.735.353Z" transform="translate(-647.402 -388.551)" fill="#fff"/><path d="M667.6,389.044l-.978,4.985-6.7-.351-3.379,17.234-6.2-.325,2.125,2.2,6.2.325,3.379-17.234,6.7.351.977-4.985Z" transform="translate(-646.984 -389.044)" fill="#fff"/></g><path d="M668.02,389.172l-.978,4.985-6.7-.351-3.379,17.234-6.2-.325,3.38-17.234-6.735-.353.978-4.985Z" transform="translate(-647.402 -388.143)" fill="url(#as)"/></g></g><g transform="translate(75.185 27.522)"><circle cx="4.877" cy="4.877" r="4.877" transform="translate(20.375)" fill="url(#ao)"/><path d="M617.026,457.431a6.247,6.247,0,1,1-6.247-6.247A6.247,6.247,0,0,1,617.026,457.431Z" transform="translate(-578.24 -322.126)" opacity="0.5" fill="url(#ao)"/><path d="M677.8,443.656a2.326,2.326,0,1,1-2.326-2.326A2.326,2.326,0,0,1,677.8,443.656Z" transform="translate(-568.473 -323.529)" fill="url(#av)"/><path d="M644.789,471.169a1.89,1.89,0,1,1-1.891-1.889A1.89,1.89,0,0,1,644.789,471.169Z" transform="translate(-573.048 -319.551)" fill="url(#aw)"/><path d="M585.295,385.689a1.889,1.889,0,1,1-1.889-1.891A1.889,1.889,0,0,1,585.295,385.689Z" transform="translate(-581.516 -331.718)" fill="url(#ax)"/><path d="M665.073,344.365a1.89,1.89,0,1,1-1.889-1.889A1.89,1.89,0,0,1,665.073,344.365Z" transform="translate(-570.161 -337.6)" fill="url(#ao)"/><circle cx="2.859" cy="2.859" r="2.859" transform="translate(93.022 135.834)" opacity="0.2" fill="url(#ao)"/><path d="M694.4,377.945a2.86,2.86,0,1,1-2.859-2.859A2.86,2.86,0,0,1,694.4,377.945Z" transform="translate(-566.262 -332.958)" opacity="0.3" fill="url(#ba)"/></g></g><g transform="translate(782.8 393.285)"><g transform="translate(9.026 10.568)"><path d="M811.884,421.531a.6.6,0,0,0-.474-.095.27.27,0,0,0-.065-.186c-.185-.178-.787-.035-1.444.134a.252.252,0,0,0-.037-.3c-.286-.248-.857,0-.857,0l-3.75,1.652-.137.171a3.009,3.009,0,0,0-.427.306,13.517,13.517,0,0,0-1.476,1.6,9.141,9.141,0,0,1-3.707,2.73l-15.027,6.081,12.035.806s5.065-3.237,6.55-3.541,3.428-.21,4.208-1.029,2.862-2.817,2.79-3.67c-.053-.63-.607-.484-.791-.4a19.632,19.632,0,0,0-2.1,1.6c-.315.2-1.5.427-1.9-.105l2.046-2.127a19.356,19.356,0,0,1,2.888-1.934C811.617,422.485,812.17,421.779,811.884,421.531Z" transform="translate(-730.805 -374.062)" fill="#efcdaf"/><g transform="translate(50.438 225.25)"><path d="M782.909,578.9l.391,8.672s4.924,2.12,8.834,0l1.049-10.481" transform="translate(-781.467 -577.09)" fill="#efcdaf"/><path d="M783.479,586.265a6.9,6.9,0,0,0-1.716,3.52,26.106,26.106,0,0,0,.1,5.312c0,.23,5.7.112,11.5.15,6.054.039,12.238.224,12.716,0,.938-.43-13.765-8.985-13.765-8.985A21.675,21.675,0,0,1,783.479,586.265Z" transform="translate(-781.647 -575.784)" fill="url(#bb)"/></g><g transform="translate(0 223.502)"><path d="M743.978,575.56l-2.5,8.31s3.508,3.576,7.9,2.871l4.239-10.185" transform="translate(-736.927 -575.56)" fill="#efcdaf"/><path d="M739.256,585.588a6.9,6.9,0,0,1,2.785-2.753c1.132,1.009,8.116,2.963,8.116,2.963s-.015.3,1.293,1.624c1,1.013,2.18,2.253,3.452,3.355.666.194,7.607,4.556,6.667,4.978s-7.186.3-9.413.2c-.525-.022-7.77-2.946-10.19-3.837s-4.621-1.989-4.465-2.432A30.2,30.2,0,0,1,739.256,585.588Z" transform="translate(-737.493 -574.524)" fill="url(#bb)"/></g><path d="M786.652,475.489S783,508.4,781.083,525.064c-.634,5.435-1.073,9.127-1.146,9.407-1.133,4.326-2.851,9.628-4.838,15.306-7.482,21.339-18.714,47.4-18.714,47.4s-8.742-1.423-13.812-5.007l12.784-59.335s-.695-47.7-1.047-55.607Z" transform="translate(-736.77 -366.302)" fill="url(#bd)"/><path d="M777.372,521.5c-.634,5.435-1.073,9.127-1.146,9.407-1.133,4.326-2.851,9.628-4.838,15.306-.378-6.008-2.742-45.687-2.742-45.687Z" transform="translate(-733.059 -362.738)" opacity="0.35" fill="url(#be)" style="mix-blend-mode:color-burn;isolation:isolate"/><path d="M800.027,393.871c-.918,4.977-3.529,15.392-6.231,19.261a1.616,1.616,0,0,1-1.682.652c-2.951-.669-12.739-3.733-14.5-15.218-2.08-13.558,7.819-16.2,12.442-15.065S801.57,385.51,800.027,393.871Z" transform="translate(-731.823 -379.428)" fill="#efcdaf"/><path d="M797.417,472.966l1.961,57.048-2.607,69.264s-8.818,1.518-15.222.49c0,0-5.827-53.473-6.142-61.067-.407-9.746-11.952-59.8-11.682-66.168" transform="translate(-733.76 -366.722)" fill="url(#bf)"/><path d="M790.27,408.27a81,81,0,0,0-2,10.28s-8.418-.288-13.285-2.931a64.576,64.576,0,0,0,4.194-17.939" transform="translate(-732.156 -377.377)" fill="#efcdaf"/><path d="M805.92,388.561a3.238,3.238,0,0,0-1.863-1.856,17.6,17.6,0,0,1-1.954-.519c-1.595-.784-1.66-3.133-3-4.3a4.305,4.305,0,0,0-1.589-.8,10.873,10.873,0,0,0-4.481-.4,6.7,6.7,0,0,1-2.049.1,6.964,6.964,0,0,1-1.083-.361,6.878,6.878,0,0,0-4.484-.255,4.748,4.748,0,0,0-1.606.908c-4.753,1.667-3.3,4.85-3.3,4.85-3.3.739-5.407,2.481-5.513,8.536s.85,13.7,1.648,14.781c.787,1.066,7.657,2.974,10.951,1.384,1.084-.522,4.327-10.159,4.7-11.2a1.564,1.564,0,0,1,.357-.688,1.626,1.626,0,0,1,1.174-.193,5.085,5.085,0,0,0,2.8-.773,7.3,7.3,0,0,0,3.185-.41,4.906,4.906,0,0,0,1.974-1.277,3.264,3.264,0,0,0,.637-1.083,5.475,5.475,0,0,0,3.643-3.78A4.4,4.4,0,0,0,805.92,388.561Z" transform="translate(-732.156 -379.907)" fill="url(#bg)"/><path d="M752.18,489.169c1.573.882,35.111,2.827,47.261-.572,0,0-.094-7.694,0-11.476.041-1.634,2.1-40.567,1.494-50.85,0,0-3.1-8.7-9.54-10.549a123.981,123.981,0,0,0-15.489-3.24c-3.352.61-9.956,7.2-12.238,13.253C756.7,444.229,750.884,488.453,752.18,489.169Z" transform="translate(-735.429 -375.27)" fill="url(#bh)"/><path d="M839.98,429.849c-.151.018-.612.122-1.234.279.339-.447.242-.928-.061-.831-.419.133-2.666.78-3.237,1.066s-2.472,1.524-2.472,1.524h0a3.417,3.417,0,0,0-.568.291c-1.016.711-1.981,2.895-3.25,3.961a23.047,23.047,0,0,1-3.145,2.094l-20.923,5.675-4.722-9.749-14.751,3.249s8.454,15.767,12.626,18.838c1.513,1.115,24.759-11.207,30.184-14.109h0c.932-.5,4.545-1.244,5.516-2.615a8.043,8.043,0,0,0,1.219-2.324l1.714-2.076s1.929-1.306,2.082-1.879a.448.448,0,0,0-.235-.577l.648-.476c.762-.7.286-1.142.286-1.142C840.4,430.668,840.608,429.773,839.98,429.849Z" transform="translate(-730.643 -372.878)" fill="#efcdaf"/><path d="M781.034,425.071c-.384,4.342,6,19.859,6,19.859s8.995-1.679,15.385-7.541c0,0-5.52-14.192-8.169-16.884C791.026,417.23,781.636,418.272,781.034,425.071Z" transform="translate(-731.298 -374.383)" fill="url(#bi)"/></g><path d="M758,370.655h-25.62a2.786,2.786,0,0,0-2.786,2.786v18.018a2.787,2.787,0,0,0,2.786,2.787h16.981l3.75,4.11a.7.7,0,0,0,1.224-.475v-3.635H758a2.787,2.787,0,0,0,2.787-2.787V373.441A2.786,2.786,0,0,0,758,370.655Z" transform="translate(-729.592 -370.655)" fill="url(#bj)"/><g transform="translate(4.679 10.023)"><path d="M749.7,381.2a1.773,1.773,0,1,0,1.773-1.773A1.773,1.773,0,0,0,749.7,381.2Z" transform="translate(-731.409 -379.429)" fill="#f0f9ff"/><path d="M741.694,381.2a1.772,1.772,0,1,0,1.772-1.773A1.772,1.772,0,0,0,741.694,381.2Z" transform="translate(-732.548 -379.429)" fill="#f0f9ff"/><path d="M733.688,381.2a1.772,1.772,0,1,0,1.773-1.773A1.773,1.773,0,0,0,733.688,381.2Z" transform="translate(-733.688 -379.429)" fill="#f0f9ff"/></g></g><g transform="translate(456.71 403.817)"><g transform="translate(0 97.77)"><path d="M504.818,587.633l-7.042.875-2.951-16.31,9.349-.484S504.625,587,504.818,587.633Z" transform="translate(-436.918 -450.34)" fill="#efcdaf"/><path d="M459.7,574.485s-4.412,12.158-4.464,12.843l-7.945-2.481,3.043-12.568Z" transform="translate(-443.684 -450.259)" fill="#efcdaf"/><path d="M507.493,535.962c-1.629-13.85-4.873-51.953-6.243-64.848l-24.4-5.651c-11.821,25.1.468,31.321,3.312,36.867.648,1.274,1.771,13.554,6.006,32.358,2.653,27.512,6.992,60.782,6.992,60.782s11.916.45,15.945-1.689Z" transform="translate(-440.195 -465.463)" fill="url(#bk)"/><path d="M465.388,469.764s-5.941,10.35-5.1,19.527c.738,7.88,2.292,31.115,3.4,43.771-6.076,19.228-15.013,56.9-15.013,56.9s2.894,1.656,9.877,3.641c1.363.387,6.088,1.059,6.934.8,0,0,15.922-48.658,18.6-58.6,6.331-23.529,11.1-66.383,11.1-66.383Z" transform="translate(-443.487 -464.899)" fill="url(#bl)"/><path d="M521.285,587.709a1.559,1.559,0,0,1,.774,2.285c-1.167,2.386-10.4,4.864-14.864,5.352H496.342l16.324-5.961a29.281,29.281,0,0,1,5.154-1.829A13.254,13.254,0,0,1,521.285,587.709Z" transform="translate(-436.702 -448.094)" fill="url(#bm)"/><path d="M497.47,585.923s4.685.231,7.124-.643c0,0,6.02,2.058,9.37,2.058s6.487-.025,7.35.686c-2.276-.361-4.574.311-7.273,1.9-10.155,5.992-17.67,5.732-17.67,5.732S495.375,589.014,497.47,585.923Z" transform="translate(-436.731 -448.409)" fill="url(#bn)"/><path d="M467.2,596.056c.521-4.043-4.48-5.922-7.578-6.481-2.031-1.066-3.7-4.575-3.7-4.575a15.892,15.892,0,0,1-7.994-2.423,9.565,9.565,0,0,0-2.373,3.284,18.041,18.041,0,0,0-1.423,5.064s3.4,2.23,5.587,3.5,6.7,1.631,6.7,1.631Z" transform="translate(-444.133 -448.793)" fill="url(#bo)"/></g><g transform="translate(10.787)"><path d="M494.227,389.09a10.076,10.076,0,0,1-.544,10.585,27.812,27.812,0,0,0-2.971,7.8c-1.18,4.968.372,14.594.372,14.594s-6.334.868-9.13-.435-.559-17.2-.559-17.2,1.925-8.882,2.236-9.751,5.9-7.514,5.9-7.514Z" transform="translate(-449.736 -378.837)" fill="url(#bp)"/><path d="M486.119,416.124c-.063-.535.084-9.58.084-9.58l-.81-1.362-3.691-6.23s-5.924-3.655-6.526,0c-.426,2.656-.13,16.87-.13,16.87l-6.5,2.279c2.3,5.957,10.391,6.535,10.391,6.535,11.5,1.073,16.387-6.276,16.387-6.276S486.248,416.621,486.119,416.124Z" transform="translate(-451.445 -377.391)" fill="#efcdaf"/><path d="M477.072,403.326s1.908,5.995,7.843,7.77v-2.183Z" transform="translate(-450.231 -376.537)" fill="#e8a77d"/><path d="M531.669,423.969c-.1-.569-.255-1.074-.53-1.181a1.91,1.91,0,0,0-.551-.105c.479-.607,1.017-1.268,1.214-1.506.377-.453,1.949-2.14,2.038-2.838s-.691-.563-.9-.432a15.553,15.553,0,0,0-2.5,2.37c-.522.58-1.528,1.683-2.232,2.453a20.561,20.561,0,0,0,1.155-2.326.638.638,0,0,0-.353-.746,12.86,12.86,0,0,0-3.328,3.978,14.688,14.688,0,0,0-.563,3.013,5.761,5.761,0,0,1-1.759,2.536l-9.658,7.919,4.76,4.644,8.584-9.275a8.233,8.233,0,0,1,2.273-1.506,4.037,4.037,0,0,0,1.339-1.3,4.467,4.467,0,0,0,.5-1.035c.11.321.386.419.572.169a9.012,9.012,0,0,0,.9-2.478c.015-.43.127-1.908-.155-2.209A1.021,1.021,0,0,0,531.669,423.969Z" transform="translate(-445.019 -374.476)" fill="#efcdaf"/><path d="M495.248,388.1s.049,23.427-6.421,24.314c-2.955.4-9.12-2.926-12.279-7.695,0,0-4.73-6.721-4.037-14.032S492.274,377.975,495.248,388.1Z" transform="translate(-450.89 -379.497)" fill="#efcdaf"/><path d="M496.14,399.788s1.38-4.655-.278-7.2c0,0-1.148-1.383-4.158-.419-2.192.7-6.511,2.367-10.652-.8,0,0,.469,5.358-3.4,7.862A17.055,17.055,0,0,0,476.3,404.6c-.089,2.353-.476,8.267-1.077,13.709l-7.9,2.7s.3-2.633.524-11.846c.217-8.835-2.609-19.4,5.287-22.528,0,0,2.432-8.273,13.586-6.517S502.78,390.867,496.14,399.788Z" transform="translate(-451.619 -379.875)" fill="url(#bq)"/><path d="M478.883,396.357s-1.32-3.727-3.759-1.859c-1.781,1.364-1.377,7.806,1.829,8.076" transform="translate(-450.658 -377.868)" fill="#efcdaf"/><path d="M520.141,434.8s-6.309,4.777-11.556,8.449c-2.071-4.373-2.972-6.143-7.753-17.225-4.092-9.485-7.228-10.051-7.228-10.051l-3.651,23.07s10.431,17.948,15.831,18.893c3.066.536,13.558-9.339,19.575-15.829a23.97,23.97,0,0,0-4.266-6.791A4.748,4.748,0,0,0,520.141,434.8Z" transform="translate(-448.398 -374.737)" fill="url(#br)"/><path d="M462.574,459.895c.37,4.948-3.159,27.112-3.529,29.836-.168,1.242.388,1.594.388,1.594s26.471,7.8,44.7.037c0,0,.7-.259.519-1.927-.334-3.039-2.986-38.9-2.986-38.9s2.834-5.91,3.576-9.616c.741-3.687-3.446-10.1-3.947-12.932s-3.186-11.784-3.186-11.784-2-.568-7.987-1.927c0,0-3.927,10.283-16.693,0-1.278.241-6.652,1.26-8.449,1.65a3.936,3.936,0,0,1-.445.111,10.263,10.263,0,0,0-4.89,3.8,41.5,41.5,0,0,0-.112,20.363A130.061,130.061,0,0,1,462.574,459.895Z" transform="translate(-452.898 -374.978)" fill="url(#bs)"/><rect width="29.187" height="41.583" rx="1.087" transform="translate(34.819 111.115) rotate(-159.103)" fill="#22256f"/><rect width="29.187" height="41.583" rx="1.544" transform="translate(38.636 109.351) rotate(-170.76)" fill="url(#bt)"/><path d="M494.857,456.962c.5,0,1.039-.336.8-.637s-3.456-1.711-4.216-1.477-1.956.94-2.761,1.143a9.579,9.579,0,0,1-2.5,0l-10.706-2.317-3.417,6.188,15.158.9s1.526.636,2.571,1.1c.043.019.087.024.13.039a7.569,7.569,0,0,0,2.107.546c.922.018,1.323-.559,1.339-.946v0c.506-.119.707-.423.72-.72a.979.979,0,0,0-.087-.437.782.782,0,0,0,.656-.7,1.023,1.023,0,0,0-.1-.469c.5-.121.691-.423.7-.717a1.085,1.085,0,0,0-.218-.674c-.232-.377-2.285-.953-2.858-1.108l.013,0A16.062,16.062,0,0,0,494.857,456.962Z" transform="translate(-450.944 -369.371)" fill="#efcdaf"/><path d="M478.744,459.1l-13.619-3.188c1.785-6.936,4.112-17.456,5.575-23.978,1.8-8.079-.388-15.305-5.039-16.212a3.93,3.93,0,0,1-.445.111,9.043,9.043,0,0,0-5.009,3.541c-2.216,3.634-3.039,9.219-3.039,9.219s-6.579,33.9-1.929,36.11c4.027,1.917,20.546,4.15,20.546,4.15s1.629-2.059,2.931-7.29A3.9,3.9,0,0,0,478.744,459.1Z" transform="translate(-453.576 -374.773)" fill="url(#bu)"/></g></g><g transform="translate(365.795 413.071)"><rect width="67.776" height="45.613" rx="5.158" fill="url(#q)"/><rect width="30.377" height="30.377" rx="2.055" transform="translate(6.014 7.618)" fill="url(#al)"/><g transform="translate(8.117 10.702)"><rect width="3.377" height="17.798" rx="0.512" transform="translate(0 6.754)" fill="#edf7ff"/><rect width="3.377" height="14.351" rx="0.512" transform="translate(5.698 10.201)" fill="#edf7ff"/><rect width="3.377" height="16.813" rx="0.512" transform="translate(11.396 7.738)" fill="#edf7ff"/><rect width="3.377" height="24.551" rx="0.512" transform="translate(17.095)" fill="#edf7ff"/><rect width="3.377" height="19.697" rx="0.512" transform="translate(22.793 4.854)" fill="#edf7ff"/></g><g transform="translate(44.366 10.864)"><path d="M16.047.532H0A.532.532,0,0,1-.532,0,.532.532,0,0,1,0-.532H16.047A.532.532,0,0,1,16.58,0,.532.532,0,0,1,16.047.532Z" fill="#fff"/><path d="M14.082.532H0A.532.532,0,0,1-.532,0,.532.532,0,0,1,0-.532H14.082A.532.532,0,0,1,14.615,0,.532.532,0,0,1,14.082.532Z" transform="translate(0 3.52)" fill="#fff"/><path d="M14.082.532H0A.532.532,0,0,1-.532,0,.532.532,0,0,1,0-.532H14.082A.532.532,0,0,1,14.615,0,.532.532,0,0,1,14.082.532Z" transform="translate(0 7.04)" fill="#fff"/><path d="M16.047.532H0A.532.532,0,0,1-.532,0,.532.532,0,0,1,0-.532H16.047A.532.532,0,0,1,16.58,0,.532.532,0,0,1,16.047.532Z" transform="translate(0 10.56)" fill="#fff"/><path d="M10.978.532H0A.532.532,0,0,1-.532,0,.532.532,0,0,1,0-.532H10.978A.532.532,0,0,1,11.511,0,.532.532,0,0,1,10.978.532Z" transform="translate(0 14.08)" fill="#fff"/><path d="M16.047.532H0A.532.532,0,0,1-.532,0,.532.532,0,0,1,0-.532H16.047A.532.532,0,0,1,16.58,0,.532.532,0,0,1,16.047.532Z" transform="translate(0 17.6)" fill="#fff"/><path d="M16.047.532H0A.532.532,0,0,1-.532,0,.532.532,0,0,1,0-.532H16.047A.532.532,0,0,1,16.58,0,.532.532,0,0,1,16.047.532Z" transform="translate(0 21.12)" fill="#fff"/><path d="M11.246.532H0A.532.532,0,0,1-.532,0,.532.532,0,0,1,0-.532H11.246A.532.532,0,0,1,11.778,0,.532.532,0,0,1,11.246.532Z" transform="translate(0 24.64)" fill="#fff"/></g></g><g transform="translate(458.356 365.951)"><path d="M737.625,508.771c-.038-.176-.076-.364-.126-.54a17.093,17.093,0,0,0-.591-2.124,18.706,18.706,0,0,0-2.2-4.4l2.149-2.137-5.139-5.139-.1.1-2.036,2.048a19.1,19.1,0,0,0-7.062-2.928v-3.028h-7.264v3.028a19.1,19.1,0,0,0-7.062,2.928l-2.136-2.149-5.141,5.139,2.149,2.137a19.1,19.1,0,0,0-2.928,7.062h-3.028v7.263h3.041a18.876,18.876,0,0,0,2.915,7.063l-2.149,2.136,5.141,5.139,2.136-2.149a18.874,18.874,0,0,0,7.062,2.915v3.041h7.264v-3.041a18.873,18.873,0,0,0,7.062-2.915l2.036,2.048.1.1,3.091-3.091,2.048-2.048L734.81,523.2l-.1-.1c.038-.05.063-.1.1-.151a18.8,18.8,0,0,0,2.815-6.912h3.042v-7.263ZM718.888,524.53A12.126,12.126,0,1,1,731.016,512.4,12.126,12.126,0,0,1,718.888,524.53Z" transform="translate(-409.771 -326.245)" fill="#ace2f9" opacity="0.3"/><path d="M879.542,373.234c-.021-.1-.041-.2-.07-.3a9.278,9.278,0,0,0-.329-1.183,10.4,10.4,0,0,0-1.225-2.448l1.2-1.19-2.863-2.862-.056.056-1.133,1.14a10.64,10.64,0,0,0-3.933-1.63V363.13h-4.044v1.686a10.641,10.641,0,0,0-3.933,1.63l-1.189-1.2-2.862,2.862,1.2,1.19a10.633,10.633,0,0,0-1.63,3.932h-1.686v4.045h1.693a10.516,10.516,0,0,0,1.623,3.932l-1.2,1.19,2.862,2.862,1.189-1.2a10.515,10.515,0,0,0,3.933,1.623v1.693h4.044V385.69a10.513,10.513,0,0,0,3.933-1.623l1.133,1.14.056.056,1.722-1.721,1.141-1.14-1.141-1.134-.056-.056c.022-.027.035-.056.056-.083a10.457,10.457,0,0,0,1.567-3.849h1.694v-4.045Zm-10.433,8.775a6.753,6.753,0,1,1,6.752-6.754A6.753,6.753,0,0,1,869.109,382.009Z" transform="translate(-387.015 -344.392)" fill="#ace2f9" opacity="0.1"/><path d="M472.811,358.926c-.025-.118-.051-.245-.085-.363a11.46,11.46,0,0,0-.4-1.428,12.583,12.583,0,0,0-1.478-2.956l1.445-1.436-3.456-3.456-.067.067-1.369,1.378a12.844,12.844,0,0,0-4.749-1.969v-2.036h-4.882v2.036a12.84,12.84,0,0,0-4.748,1.969l-1.437-1.445-3.454,3.456,1.444,1.436a12.857,12.857,0,0,0-1.968,4.748h-2.036v4.883h2.045a12.69,12.69,0,0,0,1.959,4.748l-1.444,1.436,3.454,3.456L453.025,372a12.674,12.674,0,0,0,4.748,1.96v2.045h4.882v-2.045A12.678,12.678,0,0,0,467.4,372l1.369,1.378.067.067,2.078-2.078,1.378-1.378-1.378-1.369-.067-.067c.025-.034.042-.067.067-.1a12.644,12.644,0,0,0,1.893-4.646h2.044v-4.883Zm-12.6,10.594a8.152,8.152,0,1,1,8.153-8.153A8.152,8.152,0,0,1,460.214,369.52Z" transform="translate(-445.574 -346.727)" fill="#ace2f9" opacity="0.2"/></g><g transform="translate(545.368 496.748)"><rect width="55.245" height="51.562" rx="5.354" fill="url(#q)"/><rect width="47.527" height="44.358" rx="3.508" transform="translate(3.859 3.602)" fill="#edf7ff"/><path d="M558.885,506.142h-29.8a3.979,3.979,0,0,1-3.716-2.559l13.039-19.425a3.439,3.439,0,0,1,5.691,0l4.156,6.179Z" transform="translate(-521.228 -458.177)" fill="url(#al)"/><path d="M571.089,485.78V503.5a4.019,4.019,0,0,1-4.009,4.008H536.114L546.729,491.7l11.626-17.293a3.063,3.063,0,0,1,5.095,0Z" transform="translate(-519.699 -459.544)" fill="url(#al)"/><path d="M544.7,472.989a5.078,5.078,0,1,1-5.078-5.078A5.078,5.078,0,0,1,544.7,472.989Z" transform="translate(-519.922 -460.275)" fill="url(#ca)"/></g><g transform="translate(543.523 271.1)"><path d="M568.622,287.666c0,6.59-4.695,11.933-10.485,11.933s-10.486-5.343-10.486-11.933,4.7-11.933,10.486-11.933S568.622,281.076,568.622,287.666Z" transform="translate(-516.212 -261.982)" fill="url(#q)"/><path d="M562.958,299.038h0a27.742,27.742,0,0,0-6.587,0h0a23,23,0,0,0-19.461,16.8h45.508A23,23,0,0,0,562.958,299.038Z" transform="translate(-517.74 -258.692)" fill="url(#q)"/><path d="M580.571,267.224a1.269,1.269,0,1,1-1.269-1.27A1.269,1.269,0,0,1,580.571,267.224Z" transform="translate(-511.887 -263.373)" fill="url(#cd)"/><path d="M585.639,267.224a1.27,1.27,0,1,1-1.27-1.27A1.27,1.27,0,0,1,585.639,267.224Z" transform="translate(-511.166 -263.373)" fill="url(#ce)"/><path d="M590.706,267.224a1.27,1.27,0,1,1-1.269-1.27A1.27,1.27,0,0,1,590.706,267.224Z" transform="translate(-510.445 -263.373)" fill="url(#cf)"/><path d="M601.134,263.7h-78.16a2.849,2.849,0,0,0-2.846,2.846v51.905a2.848,2.848,0,0,0,2.846,2.844h78.16a2.848,2.848,0,0,0,2.844-2.844V266.541A2.849,2.849,0,0,0,601.134,263.7Zm-78.16.9h78.16a1.948,1.948,0,0,1,1.945,1.945v3.652H521.028v-3.652A1.949,1.949,0,0,1,522.974,264.6Zm78.16,55.8h-78.16a1.949,1.949,0,0,1-1.946-1.945V271.093H603.08v47.353A1.948,1.948,0,0,1,601.134,320.391Z" transform="translate(-520.129 -263.695)" fill="url(#cg)"/></g><g transform="translate(400.972 211.667)"><g transform="translate(0 262.603)"><path d="M416.333,452a10.5,10.5,0,1,1-10.546-10.447A10.5,10.5,0,0,1,416.333,452Z" transform="translate(-395.34 -441.549)" fill="#98e7f4"/><path d="M404.64,456.4a.788.788,0,0,1-.546-.22l-4.153-3.988a.788.788,0,0,1,1.092-1.137l3.5,3.364,4.953-6.752a.788.788,0,0,1,1.272.933l-5.485,7.478a.789.789,0,0,1-.568.319Z" transform="translate(-394.607 -440.612)" fill="#fff"/></g><g transform="translate(582.838 258.804)"><path d="M921.344,446.217a7.895,7.895,0,1,1-7.8-7.993A7.9,7.9,0,0,1,921.344,446.217Z" transform="translate(-905.555 -438.223)" fill="#bdf3ff"/><path d="M912.492,449.519a.734.734,0,0,1-.518-.214l-3.071-3.053a.734.734,0,0,1,1.035-1.042l2.477,2.462,3.714-4.885a.734.734,0,1,1,1.169.889l-4.222,5.552a.734.734,0,0,1-.534.288Z" transform="translate(-905.005 -437.51)" fill="#fff"/></g><path d="M446.42,431.677a2.9,2.9,0,1,1-2.9-2.9A2.9,2.9,0,0,1,446.42,431.677Z" transform="translate(-388.896 -180.765)" fill="#bdf3ff" opacity="0.5"/><path d="M441.2,491.505a1.776,1.776,0,1,1-1.776-1.776A1.776,1.776,0,0,1,441.2,491.505Z" transform="translate(-389.318 -172.089)" fill="#bdf3ff"/><path d="M533.343,551.7a1.776,1.776,0,1,1-1.775-1.775A1.776,1.776,0,0,1,533.343,551.7Z" transform="translate(-376.203 -163.521)" fill="#bdf3ff" opacity="0.3"/><path d="M408.685,531.136a3.7,3.7,0,1,1-3.7-3.7A3.7,3.7,0,0,1,408.685,531.136Z" transform="translate(-394.493 -166.721)" fill="#bdf3ff" opacity="0.1"/><path d="M939.354,561.128a3.7,3.7,0,1,1-3.7-3.7A3.7,3.7,0,0,1,939.354,561.128Z" transform="translate(-318.959 -162.452)" fill="#bdf3ff" opacity="0.1"/><path d="M673.043,215.362a3.7,3.7,0,1,1-3.7-3.7A3.695,3.695,0,0,1,673.043,215.362Z" transform="translate(-356.865 -211.667)" fill="#bdf3ff" opacity="0.1"/><path d="M483.81,313.626a4.914,4.914,0,1,1-4.913-4.914A4.914,4.914,0,0,1,483.81,313.626Z" transform="translate(-384.146 -197.854)" fill="#bdf3ff" opacity="0.1"/><path d="M867.214,283.814A4.914,4.914,0,1,1,862.3,278.9,4.914,4.914,0,0,1,867.214,283.814Z" transform="translate(-329.574 -202.097)" fill="#bdf3ff" opacity="0.1"/><path d="M838.986,342.747a2.9,2.9,0,1,1-2.9-2.9A2.9,2.9,0,0,1,838.986,342.747Z" transform="translate(-333.019 -193.423)" fill="#bdf3ff"/><path d="M809.895,537.081a2.9,2.9,0,1,1-2.9-2.9A2.9,2.9,0,0,1,809.895,537.081Z" transform="translate(-337.16 -165.762)" fill="#98e7f4"/><path d="M650.2,282.8h-2.342v-2.339a.926.926,0,1,0-1.852,0V282.8h-2.339a.926.926,0,0,0,0,1.852h2.339v2.34a.926.926,0,1,0,1.852,0v-2.34H650.2a.926.926,0,0,0,0-1.852Z" transform="translate(-360.125 -202.007)" fill="#bdf3ff"/><g transform="translate(473.237 194.083)"><g transform="translate(3.266)"><path d="M813.4,389.951a.926.926,0,0,1-.925-.925v-6.532a.926.926,0,1,1,1.852,0v6.532A.926.926,0,0,1,813.4,389.951Z" transform="translate(-812.47 -381.567)" fill="#bdf3ff"/></g><g transform="translate(0 3.266)"><path d="M817.069,386.278h-6.532a.926.926,0,1,1,0-1.852h6.532a.926.926,0,1,1,0,1.852Z" transform="translate(-809.611 -384.426)" fill="#bdf3ff"/></g></g><path d="M542.779,441.875h-2.341v-2.339a.926.926,0,0,0-1.852,0v2.339h-2.339a.926.926,0,1,0,0,1.852h2.339v2.341a.926.926,0,1,0,1.852,0v-2.341h2.341a.926.926,0,1,0,0-1.852Z" transform="translate(-375.415 -179.365)" fill="#bdf3ff"/><path d="M853.666,321.989h-2.341v-2.341a.926.926,0,0,0-1.853,0v2.341h-2.338a.925.925,0,1,0,0,1.851h2.338v2.341a.926.926,0,0,0,1.853,0V323.84h2.341a.925.925,0,1,0,0-1.851Z" transform="translate(-331.165 -196.429)" fill="#98e7f4"/><path d="M739.028,452.317h-2.342v-2.34a.926.926,0,1,0-1.852,0v2.34H732.5a.926.926,0,0,0,0,1.852h2.34v2.341a.926.926,0,0,0,1.852,0v-2.341h2.342a.926.926,0,0,0,0-1.852Z" transform="translate(-347.482 -177.879)" fill="#bdf3ff" opacity="0.5"/></g><g transform="translate(940.45 548.31)"><g transform="translate(0 0)"><rect width="61.681" height="47.881" rx="3.862" fill="url(#ch)"/><rect width="42.866" height="33.276" rx="2.684" transform="translate(9.407 5.475)" fill="url(#e)"/><path d="M917.756,544.71H876.778a.944.944,0,0,1-.945-.945h0a.944.944,0,0,1,.945-.943h40.978a.944.944,0,0,1,.944.943h0A.944.944,0,0,1,917.756,544.71Z" transform="translate(-866.426 -501.174)" fill="url(#cj)"/><path d="M916.912,543.766a.944.944,0,0,1-.944.945H888.413v-1.888h27.555A.944.944,0,0,1,916.912,543.766Z" transform="translate(-864.635 -501.174)" fill="url(#ck)"/><circle cx="2.526" cy="2.526" r="2.526" transform="translate(21.249 40.066)" fill="url(#i)"/><path d="M890.021,543.826a1.432,1.432,0,1,1-1.433-1.432A1.432,1.432,0,0,1,890.021,543.826Z" transform="translate(-864.814 -501.235)" fill="url(#cm)"/></g><path d="M891.826,520.39a.46.46,0,0,0-.375.451v9.929a3.077,3.077,0,0,0-2.557.166c-1.381.685-2.085,2.081-1.57,3.117s2.05,1.321,3.433.635a2.7,2.7,0,0,0,1.694-2.753h.045v-9.195l8.79-1.642v7.64a3.077,3.077,0,0,0-2.557.166c-1.381.685-2.084,2.081-1.57,3.117s2.052,1.32,3.433.635a2.692,2.692,0,0,0,1.694-2.753h.044V518.981a.459.459,0,0,0-.544-.451Z" transform="translate(-864.814 -504.633)" fill="url(#cn)"/></g><g transform="translate(713.455 301.415)"><rect width="64.438" height="49.217" rx="4" fill="url(#co)"/><path d="M2.439-.256H54.784a2.7,2.7,0,0,1,2.695,2.695V41.267a2.7,2.7,0,0,1-2.695,2.695H2.439A2.7,2.7,0,0,1-.256,41.267V2.439A2.7,2.7,0,0,1,2.439-.256ZM54.784,43.451a2.186,2.186,0,0,0,2.183-2.183V2.439A2.186,2.186,0,0,0,54.784.256H2.439A2.186,2.186,0,0,0,.256,2.439V41.267a2.186,2.186,0,0,0,2.183,2.183Z" transform="translate(3.607 2.755)" fill="#edf7ff"/><g transform="translate(9.032 12.256)"><g transform="translate(7.934)"><path d="M683.739,304.085s.215-1.518.747-1.8a23.136,23.136,0,0,1,5.338-1.321c1.092.025,1.7,1.98,1.7,1.98Z" transform="translate(-683.739 -300.962)" fill="url(#cp)"/><path d="M710.683,304.085s-.214-1.518-.747-1.8a23.123,23.123,0,0,0-5.338-1.321c-1.092.025-1.7,1.98-1.7,1.98Z" transform="translate(-681.012 -300.962)" fill="url(#cq)"/></g><path d="M716.747,305.55c-2.455-3.687-14.81-3.98-17.184-4-2.374.021-14.729.313-17.184,4-1.738,2.607-5.909,17.739-5.565,18.922s5.384,2.021,7.4,0a21.73,21.73,0,0,0,2.647-3.658,6.545,6.545,0,0,1,7.071-2.97,18.859,18.859,0,0,0,11.254,0,6.545,6.545,0,0,1,7.071,2.97,21.747,21.747,0,0,0,2.647,3.658c2.021,2.021,7.072,1.181,7.406,0S718.485,308.157,716.747,305.55Z" transform="translate(-676.793 -300.878)" fill="#edf7ff"/><g transform="translate(14.519 11.355)"><path d="M694.327,313.313a2.412,2.412,0,1,1-2.413-2.411A2.413,2.413,0,0,1,694.327,313.313Z" transform="translate(-689.503 -310.902)" fill="url(#cr)"/><path d="M704.55,313.313a2.411,2.411,0,1,1-2.411-2.411A2.412,2.412,0,0,1,704.55,313.313Z" transform="translate(-688.048 -310.902)" fill="url(#cs)"/></g><path d="M687.986,308.469h-.818v-.818a1.506,1.506,0,0,0-3.012,0v.818h-.818a1.506,1.506,0,1,0,0,3.011h.818v.819a1.506,1.506,0,0,0,3.012,0v-.819h.818a1.506,1.506,0,1,0,0-3.011Z" transform="translate(-676.076 -300.224)" fill="url(#ct)"/><g transform="translate(31.467 5.922)"><path d="M709.38,307.646a1.5,1.5,0,1,1-1.5-1.5A1.5,1.5,0,0,1,709.38,307.646Z" transform="translate(-704.05 -306.146)" fill="url(#cu)"/><path d="M709.38,311.725a1.5,1.5,0,1,1-1.5-1.5A1.5,1.5,0,0,1,709.38,311.725Z" transform="translate(-704.05 -305.565)" fill="url(#cv)"/><path d="M709.92,311.185a1.5,1.5,0,1,1,1.5-1.5A1.5,1.5,0,0,1,709.92,311.185Z" transform="translate(-703.76 -305.856)" fill="url(#cw)"/><path d="M705.84,311.185a1.5,1.5,0,1,1,1.5-1.5A1.5,1.5,0,0,1,705.84,311.185Z" transform="translate(-704.34 -305.856)" fill="url(#cx)"/></g></g></g><path d="M650.538.5H0v-1H650.538Z" transform="translate(355.771 648.855)" fill="#707070"/></g></svg>